<?xml version="1.0" encoding="utf-8"?>
<!-- Generator: Adobe Illustrator 27.0.0, SVG Export Plug-In . SVG Version: 6.00 Build 0)  -->
<svg version="1.1" xmlns="http://www.w3.org/2000/svg" xmlns:xlink="http://www.w3.org/1999/xlink" x="0px" y="0px"
	 viewBox="0 0 841.89 595.28" style="enable-background:new 0 0 841.89 595.28;" xml:space="preserve">
<style type="text/css">
	.st0{fill:#B3B3B3;}
	.st1{fill:#1D1D1D;}
	.st2{fill:#1E1E1E;}
	.st3{fill:#EFEFEF;}
	.st4{fill:#ECECEC;}
	.st5{fill:#F0F0F0;}
	.st6{fill:#EDEDED;}
	.st7{fill:#F1F1F1;}
	.st8{fill:#FFFFFF;}
</style>
<g id="shark">
</g>
<g id="text">
	<g>
		<g>
			<g>
				<path class="st8" d="M168.75,384.73c-55.22,0-100.14-44.92-100.14-100.14c0-55.22,44.92-100.14,100.14-100.14
					s100.14,44.92,100.14,100.14C268.89,339.81,223.97,384.73,168.75,384.73z M168.75,193.55c-50.2,0-91.04,40.84-91.04,91.04
					c0,50.2,40.84,91.04,91.04,91.04c50.2,0,91.04-40.84,91.04-91.04C259.79,234.4,218.95,193.55,168.75,193.55z"/>
			</g>
			<g>
				<path class="st8" d="M124.07,274.62c0.88,1.97,2.25,3.31,5.12,2.71c2.82-0.6,4.69-1.94,4.91-4.46c0.04-1.38-0.78-2.5-1.66-3.56
					c-1.84-2.23-4.12-4.13-6.75-5.74c-0.95-0.58-1.89-1.54-3.18-0.96c-1.47,0.66-1.5,1.96-1.25,3.15
					C121.88,268.78,122.78,271.74,124.07,274.62z"/>
				<path class="st8" d="M235.79,256.44c-0.8-0.51-1.65-0.02-2.4,0.21c-0.78,0.24-1.52,0.62-2.2,1.02c-5.06,3-8.81,7.01-12.62,10.98
					c-1.18,1.23-0.43,2.14,0.63,3.11c0.89,0.82,2.45,1.46,1.62,3.13c-3.08-1.6-5.95-3.37-9.12-4.67c-2.92-1.19-4.18-2.45-2.28-4.98
					c0.45-0.6,1.09-1.4,0.1-2.15c-0.81-0.61-1.73-0.64-2.7-0.37c-0.8,0.22-1.71,0.35-2.35,0.75c-3.95,2.49-8.09,1.87-12.3,0.64
					c-0.7-1.01-0.54-2.04-0.31-3.15c0.69-3.31,1.27-6.63,1.75-9.96c0.16-1.13,0.4-2.52-1.2-3.18c-1.34-0.55-2.61,0.11-3.7,0.73
					c-6.27,3.53-10.37,8.5-13.47,14.04c-1.14,2.03,0.12,3.18,2.74,3.43c2.28,0.21,4.55,0.44,6.83,0.67c0.23,1.5-1.29,1.22-2.19,1.3
					c-12.03,1.06-21.89,5.86-31.08,11.87c-0.96,0.63-1.75,1.68-3.42,1.42c0.35-1.17,1.47-1.78,2.35-2.52
					c5.46-4.57,11.84-8.1,18.86-10.89c1.58-0.63,3.87-1.07,2.98-3.04c-0.79-1.77-2.88-1.81-4.94-1.55
					c-14.59,1.84-26.8,7.48-37.22,15.79c-3.79,3.02-7.31,6.87-9.75,10.71c-1.51,2.38-2.53,6.43-1.3,8.98
					c1.56,3.23,4.27,5.67,7.79,7.55c5.61,2.99,11.95,4.3,18.48,4.49c14.56,0.41,28.32-0.97,36.74-12.7
					c3.13-4.36,3.31-4.25,9.39-2.53c1.12,0.32,2.32,0.43,3.49,0.64c4.37,1.04,8.73,1,13.09-0.02c1.02-0.25,2.1-0.39,3.04-0.77
					c1.38-0.56,2.99-1.17,3.01-2.64c0.02-1.31-2.56-2.42-3.74-2.92c-3.16-1.35-7.27-0.99-10.73-1.31c-1.19-0.11-6.67-0.22-7.03-1.56
					c-0.46-1.73,2.51-2.9,4.54-3.86c1.52-0.72,2.94-0.57,4.41,0.18c1.43,0.73,2.93,1.39,4.46,1.98c2.11,0.8,3.5,0.54,3.56-1.7
					c0.04-1.39-0.62-3.1,2-3.59c2.53-0.47,4.28,0.12,5.84,1.94c3.04,3.56,6.38,6.95,9.66,10.37c0.83,0.86,2.02,1.65,3.44,1.11
					c1.61-0.62,0.81-1.88,0.69-2.91c-0.04-0.39-0.19-0.78-0.4-1.13c-4.12-6.96-2.95-13.68,0.99-20.42c1.5-2.57,2.36-5.38,3.5-8.09
					c0.31-0.75,0.66-1.49,0.87-2.26C236.39,257.88,236.72,257.02,235.79,256.44z M153.3,271.05c0.58,0,1.06,0.39,1.06,0.86
					c0,0.48-0.47,0.86-1.06,0.86c-0.58,0-1.06-0.39-1.06-0.86C152.24,271.44,152.71,271.05,153.3,271.05z M191.61,268.11
					c0.19-0.14,0.43-0.22,0.7-0.22c0.58,0,1.06,0.39,1.06,0.86s-0.47,0.86-1.06,0.86c-0.46,0-0.84-0.24-0.99-0.57
					c-0.04-0.09-0.07-0.19-0.07-0.3C191.25,268.5,191.39,268.27,191.61,268.11z M183.05,261.79c0.19-0.14,0.43-0.22,0.7-0.22
					c0.58,0,1.06,0.39,1.06,0.86c0,0.48-0.47,0.86-1.06,0.86c-0.46,0-0.84-0.24-0.99-0.57c-0.04-0.09-0.07-0.19-0.07-0.3
					C182.69,262.17,182.83,261.95,183.05,261.79z M172.45,275.24c0.74-0.26,1.59,0.01,1.92,0.61c0.32,0.6-0.01,1.3-0.75,1.57
					c-0.74,0.26-1.59-0.01-1.92-0.61C171.37,276.2,171.71,275.5,172.45,275.24z M162.38,277.94c0.58,0,1.06,0.39,1.06,0.86
					c0,0.48-0.47,0.86-1.06,0.86c-0.58,0-1.06-0.39-1.06-0.86C161.32,278.32,161.79,277.94,162.38,277.94z M146.04,285.67
					c0.58,0,1.06,0.39,1.06,0.86c0,0.48-0.47,0.86-1.06,0.86c-0.58,0-1.06-0.39-1.06-0.86
					C144.98,286.06,145.45,285.67,146.04,285.67z M187.07,285.67c0.58,0,1.06,0.39,1.06,0.86c0,0.48-0.47,0.86-1.06,0.86
					c-0.58,0-1.06-0.39-1.06-0.86C186.01,286.06,186.48,285.67,187.07,285.67z M161.32,282.77c0.58,0,1.06,0.39,1.06,0.86
					c0,0.48-0.47,0.86-1.06,0.86c-0.58,0-1.06-0.39-1.06-0.86C160.26,283.15,160.74,282.77,161.32,282.77z M142.94,273.82
					c0.74-0.26,1.59,0.01,1.92,0.61c0.32,0.6-0.01,1.3-0.75,1.57c-0.74,0.26-1.59-0.01-1.92-0.61
					C141.87,274.79,142.21,274.08,142.94,273.82z M184.23,279.77c0.74-0.26,1.59,0.01,1.92,0.61s-0.01,1.3-0.75,1.57
					c-0.74,0.26-1.59-0.01-1.92-0.61C183.15,280.73,183.49,280.03,184.23,279.77z M134.96,282.54c0.74-0.26,1.59,0.01,1.92,0.61
					c0.32,0.6-0.01,1.3-0.75,1.57c-0.74,0.26-1.59-0.01-1.92-0.61C133.89,283.5,134.23,282.8,134.96,282.54z M158.83,304.5
					c-5.2,0.52-10.38,0.55-15.55,0.19c-4.23-0.29-8.31-1.29-12.05-3.03c-1.8-0.84-3.33-1.79-2.58-3.69c0.05,0,0.09-0.01,0.14-0.01
					c12.67-1.82,24.96-0.22,37.09,2.8c0.15,0.04,0.3,0.06,0.44,0.07C165.24,303.43,162.37,304.14,158.83,304.5z M175.78,297.75
					c-1.57,0.56-3.36,0.12-4.31-0.99c-0.13-0.16-0.25-0.32-0.35-0.5c-0.11-0.2-0.18-0.4-0.23-0.6c-0.05-0.2-0.07-0.39-0.06-0.59
					c0.01-0.67,0.31-1.32,0.85-1.83c0.34-0.32,0.76-0.6,1.27-0.78c0.06-0.02,0.13-0.03,0.19-0.05c0.49-0.25,1.03-0.3,1.68-0.16
					c0.51,0.05,1,0.19,1.43,0.41c0.24,0.12,0.46,0.28,0.66,0.45c0.18,0.1,0.37,0.2,0.57,0.32c-0.05,0.03-0.11,0.06-0.16,0.09
					c0.11,0.14,0.21,0.28,0.3,0.43c0.12,0.22,0.19,0.44,0.23,0.66C178.11,295.89,177.3,297.21,175.78,297.75z M198.22,279.37
					c-0.12,0-0.24-0.02-0.35-0.06c-0.35-0.11-0.6-0.39-0.61-0.71c0,0,0-0.01,0-0.01c0-0.43,0.43-0.78,0.96-0.78
					c0.53,0,0.96,0.35,0.96,0.78S198.74,279.37,198.22,279.37z M195.98,272.88c-3.9,0.7-10.06,2.07-15.07,4.37
					c-0.29,0.13-0.58,0.27-0.86,0.41c-0.55,0.27-1.08,0.56-1.59,0.85c-0.02,0.01-0.04,0.03-0.06,0.04c-0.1,0.06-0.21,0.12-0.31,0.18
					c-1.52,0.92-2.83,1.96-3.77,3.13c0,0,0.68-1.78,2.85-3.81c1.35-1.27,3.29-2.64,6-3.75c2.83-1.15,6.5-2.01,11.25-2.15l1.32-0.02
					c1.28,0,2.64,0.04,4.07,0.15C199.81,272.28,198.29,272.46,195.98,272.88z M207.22,275.28c-0.72,0-1.3-0.48-1.3-1.06
					s0.58-1.06,1.3-1.06c0.72,0,1.3,0.48,1.3,1.06S207.93,275.28,207.22,275.28z M204.62,271.75c-0.72,0-1.3-0.48-1.3-1.06
					s0.58-1.06,1.3-1.06c0.72,0,1.3,0.48,1.3,1.06S205.33,271.75,204.62,271.75z"/>
			</g>
			<g id="XMLID_00000028290015861125696890000015704146536743848119_">
				<g>
					<path class="st8" d="M168.75,197.02c48.29,0,87.58,39.28,87.58,87.58c0,48.29-39.3,87.57-87.58,87.57s-87.58-39.28-87.58-87.57
						C81.17,236.3,120.46,197.02,168.75,197.02z M238.52,324.68c6.82-11.81,10.72-25.49,10.72-40.08c0-44.39-36.1-80.51-80.5-80.51
						s-80.51,36.12-80.51,80.51c0,19.14,6.73,36.73,17.93,50.56c5.23-2.14,9.2-6.12,13.39-9.74c4.64-4.01,9.6-7.19,16.11-6.61
						c4.96,0.42,5.9,2.14,3.62,6.58c-2.06,3.98-0.41,7.04,4.1,7.36c3.82,0.29,7.26-1.07,10.23-3.35c4.16-3.18,8.12-6.63,12.24-9.87
						c4.01-3.14,8.58-4.62,13.7-3.96c4.03,0.53,5.01,2.45,3.01,5.98c-1,1.78-1.84,3.57-0.66,5.49c1.29,2.12,3.52,2.55,5.78,2.41
						c4.61-0.27,8.35-2.57,11.8-5.39c3.21-2.62,6.29-5.42,9.57-7.97c4.01-3.11,8.6-4.59,13.72-3.82c3.89,0.58,4.84,2.45,2.94,5.8
						c-1.07,1.89-2.04,3.77-0.66,5.78c1.36,2.01,3.55,2.55,5.85,2.24c2.18-0.29,4.3-0.85,6.46-1.27
						C237.74,324.75,238.15,324.7,238.52,324.68z M233.9,331.8c-1.77,0.31-3.55,0.41-5.35,0.27c-6.29-0.53-10.42-4.95-10.1-11.15
						c0.15-3.11-1.16-2.63-2.94-1.73c-3.2,1.61-5.81,4.01-8.48,6.36c-3.57,3.14-7.19,6.24-11.64,8.14
						c-0.34,0.14-0.68,0.27-1.02,0.41c-2.89,1.09-5.88,1.58-8.99,1.31c-6.08-0.56-10.23-4.93-9.98-10.91
						c0.14-3.06-0.9-3.01-3.04-1.92c-3.09,1.56-5.61,3.88-8.16,6.14c-3.21,2.82-6.44,5.61-10.28,7.58
						c-0.88,0.46-1.75,0.85-2.58,1.19c-10.57,4.25-17.95-0.32-19.27-12.37c-3.59,0.53-6.1,2.89-8.7,5.05
						c-3.2,2.63-6.17,5.56-9.65,7.84c-1.09,0.71-2.21,1.36-3.37,1.92c5.64,5.97,12.2,11.05,19.43,15.08
						c6.07-1.75,10.4-6.39,15.09-10.45c2.31-2.01,4.71-3.81,7.36-5.01c2.24-1.02,4.67-1.6,7.41-1.5c5.52,0.24,6.61,2.02,4.22,6.9
						c-1.85,3.77-0.1,6.9,4.06,7.12c4.71,0.27,8.6-1.84,12.14-4.69c3.55-2.89,6.92-6.02,10.52-8.8c1.46-1.12,2.97-2.02,4.57-2.67
						c2.87-1.17,5.95-1.5,9.28-0.71c2.99,0.7,3.86,2.41,2.41,5.06c-1.14,2.07-2.41,4.03-0.97,6.42c1.07,1.77,3.45,2.41,7.38,1.94
						c1.97-0.15,4.2-0.92,6.46-1.73C225.04,342.48,229.82,337.41,233.9,331.8z M199.34,343.34c0.14-2.69-0.92-2.31-2.43-1.63
						c-2.55,1.12-4.67,2.92-6.75,4.78c-3.16,2.79-6.2,5.73-9.79,7.99c-3.52,2.23-7.36,3.54-11.51,3.65
						c-7.21,0.2-11.78-4.3-11.66-11.64c0.05-2.14-0.63-2.31-2.24-1.6c-3.03,1.31-5.47,3.47-7.89,5.66
						c-3.21,2.92-6.42,5.85-10.21,7.94c9.77,4.25,20.55,6.61,31.89,6.61c14.36,0,27.86-3.79,39.55-10.42
						C202.62,353.75,199.06,349.46,199.34,343.34z"/>
					<path class="st8" d="M228.54,332.08c1.8,0.14,3.59,0.03,5.35-0.27c-4.08,5.61-8.86,10.67-14.21,15.06
						c-2.26,0.82-4.49,1.58-6.46,1.73c-3.93,0.48-6.31-0.17-7.38-1.94c-1.44-2.4-0.17-4.35,0.97-6.42c1.44-2.65,0.58-4.37-2.41-5.06
						c-3.33-0.78-6.41-0.46-9.28,0.71l-0.76-1.78c0.34-0.14,0.68-0.27,1.02-0.41c4.45-1.9,8.07-5,11.64-8.14
						c2.67-2.35,5.29-4.74,8.48-6.36c1.78-0.9,3.09-1.38,2.94,1.73C218.13,327.13,222.26,331.55,228.54,332.08z"/>
					<path class="st8" d="M196.91,341.71c1.51-0.68,2.57-1.05,2.43,1.63c-0.29,6.12,3.28,10.4,8.96,11.34
						c-11.69,6.63-25.19,10.42-39.55,10.42c-11.34,0-22.11-2.36-31.89-6.61c3.79-2.09,7-5.01,10.21-7.94
						c2.41-2.19,4.86-4.35,7.89-5.66c1.61-0.71,2.29-0.54,2.24,1.6c-0.12,7.34,4.45,11.85,11.66,11.64
						c4.15-0.12,7.99-1.43,11.51-3.65c3.59-2.26,6.63-5.2,9.79-7.99C192.24,344.64,194.36,342.83,196.91,341.71z"/>
					<path class="st8" d="M194.36,334.1l0.76,1.78c-1.6,0.65-3.11,1.55-4.57,2.67c-3.6,2.79-6.97,5.91-10.52,8.8
						c-3.54,2.86-7.43,4.96-12.14,4.69c-4.16-0.22-5.91-3.35-4.06-7.12c2.4-4.88,1.31-6.66-4.22-6.9c-2.74-0.1-5.17,0.48-7.41,1.5
						l-0.88-2.04c0.83-0.34,1.7-0.73,2.58-1.19c3.84-1.97,7.07-4.76,10.28-7.58c2.55-2.26,5.06-4.57,8.16-6.14
						c2.14-1.09,3.18-1.14,3.04,1.92c-0.25,5.98,3.89,10.35,9.98,10.91C188.48,335.68,191.48,335.19,194.36,334.1z"/>
					<path class="st8" d="M151.33,337.48l0.88,2.04c-2.65,1.21-5.05,3.01-7.36,5.01c-4.69,4.06-9.03,8.7-15.09,10.45
						c-7.22-4.03-13.78-9.11-19.43-15.08c1.16-0.56,2.28-1.21,3.37-1.92c3.48-2.28,6.46-5.2,9.65-7.84c2.6-2.16,5.12-4.52,8.7-5.05
						C133.38,337.16,140.76,341.73,151.33,337.48z"/>
				</g>
			</g>
		</g>
		<g>
			<path class="st8" d="M312.57,282.05c-4.6-4.86-9.73-9.18-15.4-12.97l6.89-7.7c5.67,4.05,10.94,8.1,15.8,12.16L312.57,282.05z
				 M309.32,329.86l-10.54-2.84c3.78-12.97,6.89-24.99,9.32-36.07c3.24,1.08,6.75,2.3,10.54,3.65c-0.27,1.62-0.95,3.92-2.03,6.89
				C313.1,314.74,310.67,324.19,309.32,329.86z M315.4,255.3c-2.98-2.97-7.43-6.89-13.37-11.75c0.54,0.54-0.14,0-2.03-1.62
				l6.89-7.29c2.97,2.17,8.24,6.22,15.8,12.16L315.4,255.3z M326.34,268.27c-0.27-0.27-0.54-0.67-0.81-1.22
				c-1.62-1.89-3.65-4.05-6.08-6.48c8.64-8.1,15.13-17.42,19.45-27.96l11.35,1.22c-1.62,2.7-2.98,5.27-4.05,7.7h47.41v8.92h-52.68
				c-0.27,0.54-0.68,1.22-1.22,2.03c-1.08,1.35-2.57,3.24-4.46,5.67h52.27c0,1.08,0,3.65,0,7.7c-0.27,7.03-0.41,12.56-0.41,16.61
				h8.51v8.92h-8.92l-0.41,15.8h7.29v8.51h-7.7c-0.27,9.18-5.67,13.78-16.21,13.78h-15.4c-0.27-1.08-0.81-2.98-1.62-5.67
				c-0.27-1.35-0.54-2.3-0.81-2.84c4.59,0.27,9.45,0.41,14.59,0.41c5.67,0.27,8.78-1.62,9.32-5.67h-40.52l-0.41,2.84h-10.54
				l3.65-27.15h-8.1v-8.92h9.32l2.43-19.86c-0.54,0.54-1.35,1.49-2.43,2.84C327.82,266.52,326.88,267.46,326.34,268.27z
				 M366.46,300.69l-5.67,6.48h15.4c0.27-3.24,0.41-8.51,0.41-15.8H338.5l-2.03,15.8h23.91c-1.08-0.81-2.57-2.03-4.46-3.65
				c-2.98-2.43-5.41-4.32-7.29-5.67l5.67-5.67c0.81,0.54,2.16,1.49,4.05,2.84C361.6,297.45,364.3,299.34,366.46,300.69z
				 M341.34,267.05l-2.03,15.4H377c0-8.1,0.13-13.23,0.41-15.4H341.34z M361.6,282.45c-3.79-3.51-7.7-6.62-11.75-9.32l5.67-5.67
				c1.89,1.35,4.46,3.11,7.7,5.27c1.62,1.35,2.97,2.43,4.05,3.24L361.6,282.45z"/>
			<path class="st8" d="M422.79,330.67c-0.27-0.27-0.54-0.54-0.81-0.81c-3.79-2.98-6.48-5.14-8.1-6.48
				c3.78-5.94,6.21-11.88,7.29-17.83c1.08-5.94,1.62-15.4,1.62-28.37v-34.44h41.33v-10.13h10.94v10.13h36.47v9.32h-78.61v24.72
				c0,14.32-0.68,24.99-2.03,32.01C429.54,316.09,426.84,323.38,422.79,330.67z M436.97,322.98l-3.65-7.7
				c0.54-0.27,1.21-0.54,2.03-0.81c1.89-0.81,4.32-1.62,7.29-2.43v-50.25c21.61-0.54,42.55-1.62,62.81-3.24l2.84,9.32
				c-1.89,0-5,0.27-9.32,0.81c-6.48,0.27-11.35,0.54-14.59,0.81c0,5.41,0.13,10.13,0.41,14.18h25.93v9.32H486
				c1.08,8.65,3.24,15.8,6.48,21.48c1.62,2.7,3.51,4.05,5.67,4.05c2.16,0,3.38-1.22,3.65-3.65c0.54-1.89,1.22-4.86,2.03-8.92
				c0-1.89,0.13-3.24,0.41-4.05c0.81,0.27,2.29,0.81,4.46,1.62c1.89,0.81,3.24,1.35,4.05,1.62c-0.27,5.67-1.08,10.13-2.43,13.37
				c-1.89,7.02-5.95,10.54-12.16,10.54c-5.67,0-10.67-3.51-14.99-10.54c-3.79-6.48-6.35-14.99-7.7-25.53h-22.29v14.99
				c8.64-3.24,14.59-5.4,17.83-6.48c0.27,2.43,0.81,5.41,1.62,8.92C461.28,314.2,449.39,318.38,436.97,322.98z M448.72,328.24v-9.73
				h32.01v9.73H448.72z M474.66,283.67c-0.54-4.05-0.81-8.64-0.81-13.78c-0.27,0-0.81,0-1.62,0c-9.19,0.54-15.54,0.81-19.05,0.81
				v12.97H474.66z"/>
			<path class="st8" d="M531.79,263v-10.13h10.13v-19.05h10.13v19.05h8.1V263h-8.1v17.42l8.1-2.03c0,3.79,0.13,7.16,0.41,10.13
				l-8.51,2.03v27.15c0.27,7.29-3.11,10.94-10.13,10.94c-3.51,0.27-6.48,0.41-8.92,0.41c0-0.81-0.27-2.17-0.81-4.05
				c-0.27-2.7-0.54-4.86-0.81-6.48c1.62,0.27,3.65,0.41,6.08,0.41c3.24,0.27,4.72-1.08,4.46-4.05v-21.48l-10.13,2.84l-1.22-10.94
				c3.51-0.81,7.29-1.62,11.35-2.43V263H531.79z M608.38,273.54c-4.32,0-7.29-1.22-8.92-3.65v11.75h28.37v9.32h-24.31
				c6.21,10.27,15.13,18.1,26.75,23.5c-2.17,2.7-4.19,5.53-6.08,8.51c-11.35-6.75-19.59-14.59-24.72-23.5v30.8h-10.13v-30.8
				c-6.22,9.73-14.99,17.83-26.34,24.31c-1.89-2.7-3.92-5.4-6.08-8.1c12.42-6.48,22.02-14.72,28.77-24.72H563.4v-9.32h25.93v-11.75
				h10.13c-0.81-1.35-1.22-2.97-1.22-4.86v-16.61h-6.89c0,14.86-7.29,24.59-21.88,29.18c-2.43-3.24-4.46-5.67-6.08-7.29
				c13.23-4.05,19.58-11.35,19.05-21.88h-8.1v9.32h-10.13V239.5h61.19v18.24h-9.73v-9.32h-8.51v13.78c0,2.17,1.48,3.24,4.46,3.24
				h3.65c2.16,0.27,3.38-0.67,3.65-2.84c0.27-0.81,0.41-1.89,0.41-3.24c1.35,0.54,3.51,0.95,6.48,1.22
				c1.08,0.27,1.75,0.41,2.03,0.41c0,0.54-0.27,1.62-0.81,3.24c-0.27,1.62-0.54,2.84-0.81,3.65c-1.08,4.05-4.46,5.95-10.13,5.67
				H608.38z"/>
			<path class="st8" d="M649.72,248.41c0-1.08-0.27-2.97-0.81-5.67c-0.27-1.62-0.41-2.84-0.41-3.65
				c14.04-0.54,25.12-1.22,33.23-2.03l2.03,9.32c-4.6,0.27-8.92,0.68-12.97,1.22v14.59h12.16v9.73h-12.16v6.48
				c1.08,0.81,2.84,2.17,5.27,4.05c3.51,2.43,5.94,4.32,7.29,5.67c1.62-7.29,3.1-14.85,4.46-22.69l8.1,1.62
				c-1.08,9.73-2.84,20-5.27,30.8l-8.92-2.43c0.54-1.08,1.08-2.97,1.62-5.67c0-0.27,0-0.54,0-0.81l-4.86,7.7
				c-0.81-0.81-2.03-2.03-3.65-3.65c-1.89-1.62-3.24-2.84-4.05-3.65v40.93h-9.73v-38.5c-2.98,7.84-6.48,14.59-10.54,20.26
				c-1.08-3.78-2.43-7.29-4.05-10.54c5.94-8.37,10.67-18.24,14.18-29.58H648.1v-9.73h12.97v-14.18
				C657.55,248.28,653.77,248.41,649.72,248.41z M712.12,326.62c-8.65,0.27-13.11-3.79-13.37-12.16c-0.54,0.54-1.35,1.22-2.43,2.03
				c-3.24,2.43-7.7,5.94-13.37,10.54c-0.27-0.54-0.81-1.22-1.62-2.03c-2.17-2.7-3.79-4.73-4.86-6.08
				c8.92-5.67,16.34-11.75,22.29-18.24v-48.63h9.73v36.47c4.86-6.48,10.13-16.07,15.8-28.77c1.89-5.4,4.05-11.48,6.48-18.24
				l9.32,3.65c-0.54,1.62-1.49,4.05-2.84,7.29c-1.89,4.86-3.24,8.51-4.05,10.94c-7.84,17.02-16.08,30.53-24.72,40.52v7.29
				c-0.27,4.6,2.03,6.76,6.89,6.48h4.46c4.32,0.27,6.75-1.62,7.29-5.67c0.27-1.62,0.67-4.32,1.22-8.1c0.27-2.16,0.54-3.91,0.81-5.27
				c2.7,1.08,5.81,2.17,9.32,3.24c0,0.81-0.14,1.89-0.41,3.24c-0.54,5.41-1.22,9.19-2.03,11.35c-1.36,7.02-6.08,10.4-14.18,10.13
				H712.12z M715.77,256.11c-2.7-2.97-7.16-7.83-13.37-14.59c0.54,0.54,0-0.13-1.62-2.03l6.89-6.48c1.89,1.89,4.46,4.46,7.7,7.7
				c3.51,3.51,6.08,6.22,7.7,8.1L715.77,256.11z M736.84,297.04c-0.54-2.7-1.62-7.02-3.24-12.97c-1.35-5.67-2.43-9.86-3.24-12.56
				l8.92-2.84c0.27,1.08,0.67,2.7,1.21,4.86c2.97,9.46,4.86,16.35,5.67,20.67L736.84,297.04z"/>
		</g>
	</g>
</g>
</svg>
