<?xml version="1.0" encoding="utf-8"?>
<!-- Generator: Adobe Illustrator 27.0.0, SVG Export Plug-In . SVG Version: 6.00 Build 0)  -->
<svg version="1.1" id="圖層_1" xmlns="http://www.w3.org/2000/svg" xmlns:xlink="http://www.w3.org/1999/xlink" x="0px" y="0px"
	 viewBox="0 0 563.3 174.8" style="enable-background:new 0 0 563.3 174.8;" xml:space="preserve">
<style type="text/css">
	.st0{fill:#EBEFFF;}
</style>
<g>
	<g>
		<g>
			<path class="st0" d="M104.5,162.3c-41.1,0-74.5-33.4-74.5-74.5s33.4-74.5,74.5-74.5S179,46.7,179,87.8
				C179,128.9,145.5,162.3,104.5,162.3z M104.5,20c-37.3,0-67.7,30.4-67.7,67.7c0,37.3,30.4,67.7,67.7,67.7
				c37.3,0,67.7-30.4,67.7-67.7C172.2,50.4,141.8,20,104.5,20z"/>
		</g>
		<g>
			<path class="st0" d="M71.2,80.3c0.7,1.5,1.7,2.5,3.8,2c2.1-0.4,3.5-1.4,3.7-3.3c0-1-0.6-1.9-1.2-2.7c-1.4-1.7-3.1-3.1-5-4.3
				c-0.7-0.4-1.4-1.1-2.4-0.7c-1.1,0.5-1.1,1.5-0.9,2.3C69.6,76,70.3,78.2,71.2,80.3z"/>
			<path class="st0" d="M154.3,66.8c-0.6-0.4-1.2,0-1.8,0.2c-0.6,0.2-1.1,0.5-1.6,0.8c-3.8,2.2-6.6,5.2-9.4,8.2
				c-0.9,0.9-0.3,1.6,0.5,2.3c0.7,0.6,1.8,1.1,1.2,2.3c-2.3-1.2-4.4-2.5-6.8-3.5c-2.2-0.9-3.1-1.8-1.7-3.7c0.3-0.4,0.8-1,0.1-1.6
				c-0.6-0.5-1.3-0.5-2-0.3c-0.6,0.2-1.3,0.3-1.8,0.6c-2.9,1.8-6,1.4-9.2,0.5c-0.5-0.8-0.4-1.5-0.2-2.3c0.5-2.5,0.9-4.9,1.3-7.4
				c0.1-0.8,0.3-1.9-0.9-2.4c-1-0.4-1.9,0.1-2.8,0.5c-4.7,2.6-7.7,6.3-10,10.4c-0.8,1.5,0.1,2.4,2,2.6c1.7,0.2,3.4,0.3,5.1,0.5
				c0.2,1.1-1,0.9-1.6,1c-8.9,0.8-16.3,4.4-23.1,8.8c-0.7,0.5-1.3,1.2-2.5,1.1c0.3-0.9,1.1-1.3,1.8-1.9c4.1-3.4,8.8-6,14-8.1
				c1.2-0.5,2.9-0.8,2.2-2.3c-0.6-1.3-2.1-1.3-3.7-1.2c-10.8,1.4-19.9,5.6-27.7,11.7c-2.8,2.2-5.4,5.1-7.3,8c-1.1,1.8-1.9,4.8-1,6.7
				c1.2,2.4,3.2,4.2,5.8,5.6c4.2,2.2,8.9,3.2,13.8,3.3c10.8,0.3,21.1-0.7,27.3-9.4c2.3-3.2,2.5-3.2,7-1.9c0.8,0.2,1.7,0.3,2.6,0.5
				c3.2,0.8,6.5,0.8,9.7,0c0.8-0.2,1.6-0.3,2.3-0.6c1-0.4,2.2-0.9,2.2-2c0-1-1.9-1.8-2.8-2.2c-2.4-1-5.4-0.7-8-1
				c-0.9-0.1-5-0.2-5.2-1.2c-0.3-1.3,1.9-2.2,3.4-2.9c1.1-0.5,2.2-0.4,3.3,0.1c1.1,0.5,2.2,1,3.3,1.5c1.6,0.6,2.6,0.4,2.6-1.3
				c0-1-0.5-2.3,1.5-2.7c1.9-0.3,3.2,0.1,4.3,1.4c2.3,2.7,4.8,5.2,7.2,7.7c0.6,0.6,1.5,1.2,2.6,0.8c1.2-0.5,0.6-1.4,0.5-2.2
				c0-0.3-0.1-0.6-0.3-0.8c-3.1-5.2-2.2-10.2,0.7-15.2c1.1-1.9,1.8-4,2.6-6c0.2-0.6,0.5-1.1,0.6-1.7C154.8,67.9,155,67.3,154.3,66.8
				z M93,77.7c0.4,0,0.8,0.3,0.8,0.6c0,0.4-0.3,0.6-0.8,0.6c-0.4,0-0.8-0.3-0.8-0.6S92.5,77.7,93,77.7z M121.5,75.5
				c0.1-0.1,0.3-0.2,0.5-0.2c0.4,0,0.8,0.3,0.8,0.6c0,0.4-0.3,0.6-0.8,0.6c-0.3,0-0.6-0.2-0.7-0.4c0-0.1-0.1-0.1-0.1-0.2
				C121.2,75.8,121.3,75.6,121.5,75.5z M115.1,70.8c0.1-0.1,0.3-0.2,0.5-0.2c0.4,0,0.8,0.3,0.8,0.6s-0.3,0.6-0.8,0.6
				c-0.3,0-0.6-0.2-0.7-0.4c0-0.1-0.1-0.1-0.1-0.2C114.8,71.1,114.9,70.9,115.1,70.8z M107.2,80.8c0.6-0.2,1.2,0,1.4,0.5
				s0,1-0.6,1.2c-0.6,0.2-1.2,0-1.4-0.5S106.7,81,107.2,80.8z M99.7,82.8c0.4,0,0.8,0.3,0.8,0.6c0,0.4-0.3,0.6-0.8,0.6
				c-0.4,0-0.8-0.3-0.8-0.6S99.3,82.8,99.7,82.8z M87.6,88.6c0.4,0,0.8,0.3,0.8,0.6c0,0.4-0.3,0.6-0.8,0.6c-0.4,0-0.8-0.3-0.8-0.6
				C86.8,88.9,87.1,88.6,87.6,88.6z M118.1,88.6c0.4,0,0.8,0.3,0.8,0.6c0,0.4-0.3,0.6-0.8,0.6c-0.4,0-0.8-0.3-0.8-0.6
				C117.3,88.9,117.7,88.6,118.1,88.6z M98.9,86.4c0.4,0,0.8,0.3,0.8,0.6c0,0.4-0.3,0.6-0.8,0.6c-0.4,0-0.8-0.3-0.8-0.6
				C98.2,86.7,98.5,86.4,98.9,86.4z M85.3,79.8c0.6-0.2,1.2,0,1.4,0.5s0,1-0.6,1.2c-0.6,0.2-1.2,0-1.4-0.5
				C84.5,80.5,84.7,80,85.3,79.8z M116,84.2c0.6-0.2,1.2,0,1.4,0.5s0,1-0.6,1.2c-0.6,0.2-1.2,0-1.4-0.5
				C115.2,84.9,115.4,84.4,116,84.2z M79.3,86.2c0.6-0.2,1.2,0,1.4,0.5s0,1-0.6,1.2c-0.6,0.2-1.2,0-1.4-0.5
				C78.5,87,78.8,86.4,79.3,86.2z M97.1,102.6c-3.9,0.4-7.7,0.4-11.6,0.1c-3.2-0.2-6.2-1-9-2.2c-1.3-0.6-2.5-1.3-1.9-2.8
				c0,0,0.1,0,0.1,0c9.4-1.3,18.6-0.2,27.6,2.1c0.1,0,0.2,0.1,0.3,0.1C101.8,101.8,99.7,102.3,97.1,102.6z M109.7,97.6
				c-1.2,0.4-2.5,0.1-3.2-0.7c-0.1-0.1-0.2-0.2-0.3-0.4c-0.1-0.2-0.1-0.3-0.2-0.4c0-0.2-0.1-0.3-0.1-0.4c0-0.5,0.2-1,0.6-1.4
				c0.2-0.2,0.6-0.4,0.9-0.6c0.1,0,0.1,0,0.1,0c0.4-0.2,0.8-0.2,1.2-0.1c0.4,0,0.7,0.1,1.1,0.3c0.2,0.1,0.3,0.2,0.5,0.3
				c0.1,0.1,0.3,0.2,0.4,0.2c0,0-0.1,0-0.1,0.1c0.1,0.1,0.2,0.2,0.2,0.3c0.1,0.2,0.1,0.3,0.2,0.5C111.4,96.2,110.8,97.2,109.7,97.6z
				 M126.4,83.9c-0.1,0-0.2,0-0.3,0c-0.3-0.1-0.4-0.3-0.4-0.5v0c0-0.3,0.3-0.6,0.7-0.6s0.7,0.3,0.7,0.6S126.8,83.9,126.4,83.9z
				 M124.7,79.1c-2.9,0.5-7.5,1.5-11.2,3.2c-0.2,0.1-0.4,0.2-0.6,0.3c-0.4,0.2-0.8,0.4-1.2,0.6c0,0,0,0-0.1,0
				c-0.1,0.1-0.2,0.1-0.2,0.1c-1.1,0.7-2.1,1.5-2.8,2.3c0,0,0.5-1.3,2.1-2.8c1-0.9,2.4-2,4.5-2.8c2.1-0.9,4.8-1.5,8.4-1.6l1,0
				c1,0,2,0,3,0.1C127.6,78.6,126.4,78.8,124.7,79.1z M133.1,80.8c-0.5,0-1-0.3-1-0.8s0.4-0.8,1-0.8s1,0.3,1,0.8
				S133.6,80.8,133.1,80.8z M131.1,78.2c-0.5,0-1-0.3-1-0.8s0.4-0.8,1-0.8s1,0.3,1,0.8S131.7,78.2,131.1,78.2z"/>
		</g>
		<g id="XMLID_00000028290015861125696890000015704146536743848119_">
			<path class="st0" d="M104.5,22.6c-35.9,0-65.2,29.2-65.2,65.2c0,35.9,29.2,65.2,65.2,65.2c35.9,0,65.2-29.2,65.2-65.2
				C169.6,51.8,140.4,22.6,104.5,22.6z M92.2,128.6C92.2,128.6,92.2,128.6,92.2,128.6c-0.1,0-0.2,0.1-0.3,0.1
				C92,128.7,92.1,128.7,92.2,128.6L92.2,128.6z M65.1,126.4c0.1-0.1,0.2-0.1,0.3-0.2C65.3,126.2,65.2,126.3,65.1,126.4z
				 M66.7,125.1c0.2-0.1,0.3-0.3,0.5-0.4C67,124.8,66.8,125,66.7,125.1z M104.5,147.7c-8.4,0-16.5-1.8-23.7-4.9c0,0,0,0,0,0
				C88,145.9,96,147.7,104.5,147.7c10.7,0,20.7-2.8,29.4-7.8c0,0,0,0,0,0C125.2,144.8,115.1,147.7,104.5,147.7z M142.4,134.1
				C142.4,134.1,142.4,134.1,142.4,134.1c4-3.3,7.5-7,10.5-11.2C149.9,127.1,146.3,130.8,142.4,134.1z M155.5,117.7
				c-1.6,0.3-3.2,0.7-4.8,1c-1.7,0.2-3.3-0.2-4.3-1.7c-1-1.5-0.3-2.9,0.5-4.3c1.4-2.5,0.7-3.9-2.2-4.3c-3.8-0.6-7.2,0.5-10.2,2.9
				c-2.4,1.9-4.7,4-7.1,5.9c-2.6,2.1-5.3,3.8-8.8,4c-1.7,0.1-3.3-0.2-4.3-1.8c-0.9-1.4-0.3-2.8,0.5-4.1c1.5-2.6,0.8-4.1-2.2-4.5
				c-3.8-0.5-7.2,0.6-10.2,3c-3.1,2.4-6,5-9.1,7.3c-2.2,1.7-4.8,2.7-7.6,2.5c-3.4-0.2-4.6-2.5-3.1-5.5c1.7-3.3,1-4.6-2.7-4.9
				c-4.8-0.4-8.5,1.9-12,4.9c-3.1,2.7-6.1,5.7-10,7.2c-8.3-10.3-13.3-23.4-13.3-37.6c0-33,26.9-59.9,59.9-59.9
				c33,0,59.9,26.9,59.9,59.9c0,10.9-2.9,21-8,29.8C156.1,117.6,155.8,117.6,155.5,117.7z"/>
		</g>
	</g>
	<g>
		<path class="st0" d="M211.5,85.9c-3.4-3.6-7.2-6.8-11.5-9.7l5.1-5.7c4.2,3,8.1,6,11.8,9L211.5,85.9z M209,121.4l-7.8-2.1
			c2.8-9.7,5.1-18.6,6.9-26.8c2.4,0.8,5,1.7,7.8,2.7c-0.2,1.2-0.7,2.9-1.5,5.1C211.9,110.2,210.1,117.2,209,121.4z M213.6,66
			c-2.2-2.2-5.5-5.1-9.9-8.7c0.4,0.4-0.1,0-1.5-1.2l5.1-5.4c2.2,1.6,6.1,4.6,11.8,9L213.6,66z M221.7,75.6c-0.2-0.2-0.4-0.5-0.6-0.9
			c-1.2-1.4-2.7-3-4.5-4.8c6.4-6,11.2-13,14.5-20.8l8.4,0.9c-1.2,2-2.2,3.9-3,5.7h35.3v6.6h-39.2c-0.2,0.4-0.5,0.9-0.9,1.5
			c-0.8,1-1.9,2.4-3.3,4.2h38.9c0,0.8,0,2.7,0,5.7c-0.2,5.2-0.3,9.3-0.3,12.4h6.3v6.6h-6.6l-0.3,11.8h5.4v6.3H266
			c-0.2,6.8-4.2,10.2-12.1,10.2h-11.5c-0.2-0.8-0.6-2.2-1.2-4.2c-0.2-1-0.4-1.7-0.6-2.1c3.4,0.2,7,0.3,10.9,0.3
			c4.2,0.2,6.5-1.2,6.9-4.2h-30.1L228,113h-7.8l2.7-20.2h-6v-6.6h6.9l1.8-14.8c-0.4,0.4-1,1.1-1.8,2.1
			C222.8,74.3,222.1,75,221.7,75.6z M251.6,99.8l-4.2,4.8h11.5c0.2-2.4,0.3-6.3,0.3-11.8h-28.3l-1.5,11.8H247
			c-0.8-0.6-1.9-1.5-3.3-2.7c-2.2-1.8-4-3.2-5.4-4.2l4.2-4.2c0.6,0.4,1.6,1.1,3,2.1C247.9,97.3,249.9,98.7,251.6,99.8z M232.9,74.7
			l-1.5,11.5h28c0-6,0.1-9.8,0.3-11.5H232.9z M247.9,86.2c-2.8-2.6-5.7-4.9-8.7-6.9l4.2-4.2c1.4,1,3.3,2.3,5.7,3.9
			c1.2,1,2.2,1.8,3,2.4L247.9,86.2z"/>
		<path class="st0" d="M293.5,122.1c-0.2-0.2-0.4-0.4-0.6-0.6c-2.8-2.2-4.8-3.8-6-4.8c2.8-4.4,4.6-8.8,5.4-13.3
			c0.8-4.4,1.2-11.5,1.2-21.1V56.6h30.8v-7.5h8.1v7.5h27.1v6.9H301V82c0,10.7-0.5,18.6-1.5,23.8
			C298.5,111.2,296.5,116.6,293.5,122.1z M304,116.3l-2.7-5.7c0.4-0.2,0.9-0.4,1.5-0.6c1.4-0.6,3.2-1.2,5.4-1.8V70.8
			c16.1-0.4,31.7-1.2,46.7-2.4l2.1,6.9c-1.4,0-3.7,0.2-6.9,0.6c-4.8,0.2-8.4,0.4-10.9,0.6c0,4,0.1,7.5,0.3,10.6h19.3V94h-18.4
			c0.8,6.4,2.4,11.8,4.8,16c1.2,2,2.6,3,4.2,3c1.6,0,2.5-0.9,2.7-2.7c0.4-1.4,0.9-3.6,1.5-6.6c0-1.4,0.1-2.4,0.3-3
			c0.6,0.2,1.7,0.6,3.3,1.2c1.4,0.6,2.4,1,3,1.2c-0.2,4.2-0.8,7.5-1.8,9.9c-1.4,5.2-4.4,7.8-9,7.8c-4.2,0-7.9-2.6-11.1-7.8
			c-2.8-4.8-4.7-11.2-5.7-19h-16.6v11.2c6.4-2.4,10.9-4,13.3-4.8c0.2,1.8,0.6,4,1.2,6.6C322.1,109.8,313.2,112.9,304,116.3z
			 M312.8,120.2V113h23.8v7.2H312.8z M332,87.1c-0.4-3-0.6-6.4-0.6-10.2c-0.2,0-0.6,0-1.2,0c-6.8,0.4-11.6,0.6-14.2,0.6v9.7H332z"/>
		<path class="st0" d="M374.6,71.7v-7.5h7.5V50h7.5v14.2h6v7.5h-6v13l6-1.5c0,2.8,0.1,5.3,0.3,7.5l-6.3,1.5v20.2
			c0.2,5.4-2.3,8.1-7.5,8.1c-2.6,0.2-4.8,0.3-6.6,0.3c0-0.6-0.2-1.6-0.6-3c-0.2-2-0.4-3.6-0.6-4.8c1.2,0.2,2.7,0.3,4.5,0.3
			c2.4,0.2,3.5-0.8,3.3-3v-16l-7.5,2.1l-0.9-8.1c2.6-0.6,5.4-1.2,8.4-1.8V71.7H374.6z M431.5,79.6c-3.2,0-5.4-0.9-6.6-2.7v8.7H446
			v6.9h-18.1c4.6,7.6,11.2,13.5,19.9,17.5c-1.6,2-3.1,4.1-4.5,6.3c-8.4-5-14.6-10.8-18.4-17.5v22.9h-7.5V98.8
			c-4.6,7.2-11.1,13.3-19.6,18.1c-1.4-2-2.9-4-4.5-6c9.2-4.8,16.4-10.9,21.4-18.4h-16.6v-6.9h19.3v-8.7h7.5c-0.6-1-0.9-2.2-0.9-3.6
			V60.9h-5.1c0,11.1-5.4,18.3-16.3,21.7c-1.8-2.4-3.3-4.2-4.5-5.4c9.9-3,14.6-8.4,14.2-16.3h-6v6.9h-7.5V54.2h45.5v13.6H437v-6.9
			h-6.3v10.2c0,1.6,1.1,2.4,3.3,2.4h2.7c1.6,0.2,2.5-0.5,2.7-2.1c0.2-0.6,0.3-1.4,0.3-2.4c1,0.4,2.6,0.7,4.8,0.9
			c0.8,0.2,1.3,0.3,1.5,0.3c0,0.4-0.2,1.2-0.6,2.4c-0.2,1.2-0.4,2.1-0.6,2.7c-0.8,3-3.3,4.4-7.5,4.2L431.5,79.6L431.5,79.6z"/>
		<path class="st0" d="M462.3,60.9c0-0.8-0.2-2.2-0.6-4.2c-0.2-1.2-0.3-2.1-0.3-2.7c10.5-0.4,18.7-0.9,24.7-1.5l1.5,6.9
			c-3.4,0.2-6.6,0.5-9.6,0.9v10.9h9v7.2h-9v4.8c0.8,0.6,2.1,1.6,3.9,3c2.6,1.8,4.4,3.2,5.4,4.2c1.2-5.4,2.3-11.1,3.3-16.9l6,1.2
			c-0.8,7.2-2.1,14.9-3.9,22.9l-6.6-1.8c0.4-0.8,0.8-2.2,1.2-4.2c0-0.2,0-0.4,0-0.6l-3.6,5.7c-0.6-0.6-1.5-1.5-2.7-2.7
			c-1.4-1.2-2.4-2.1-3-2.7v30.4h-7.2V93.1c-2.2,5.8-4.8,10.8-7.8,15.1c-0.8-2.8-1.8-5.4-3-7.8c4.4-6.2,7.9-13.6,10.5-22h-9.4v-7.2
			h9.6V60.6C468.1,60.8,465.3,60.9,462.3,60.9z M508.7,119c-6.4,0.2-9.8-2.8-10-9c-0.4,0.4-1,0.9-1.8,1.5c-2.4,1.8-5.7,4.4-10,7.8
			c-0.2-0.4-0.6-0.9-1.2-1.5c-1.6-2-2.8-3.5-3.6-4.5c6.6-4.2,12.2-8.7,16.6-13.6V63.6h7.3v27.1c3.6-4.8,7.5-12,11.8-21.4
			c1.4-4,3-8.5,4.8-13.6l6.9,2.7c-0.4,1.2-1.1,3-2.1,5.4c-1.4,3.6-2.4,6.3-3,8.1c-5.8,12.7-12,22.7-18.4,30.2v5.4
			c-0.2,3.4,1.5,5,5.1,4.8h3.3c3.2,0.2,5-1.2,5.4-4.2c0.2-1.2,0.5-3.2,0.9-6c0.2-1.6,0.4-2.9,0.6-3.9c2,0.8,4.3,1.6,6.9,2.4
			c0,0.6-0.1,1.4-0.3,2.4c-0.4,4-0.9,6.8-1.5,8.4c-1,5.2-4.5,7.7-10.5,7.5L508.7,119L508.7,119z M511.4,66.6c-2-2.2-5.3-5.8-10-10.8
			c0.4,0.4,0-0.1-1.2-1.5l5.1-4.8c1.4,1.4,3.3,3.3,5.7,5.7c2.6,2.6,4.5,4.6,5.7,6L511.4,66.6z M527.1,97c-0.4-2-1.2-5.2-2.4-9.7
			c-1-4.2-1.8-7.3-2.4-9.3l6.6-2.1c0.2,0.8,0.5,2,0.9,3.6c2.2,7,3.6,12.2,4.2,15.4L527.1,97z"/>
	</g>
</g>
</svg>
